<?xml version="1.0" standalone="no"?>
<!DOCTYPE svg PUBLIC "-//W3C//DTD SVG 20010904//EN"
 "http://www.w3.org/TR/2001/REC-SVG-20010904/DTD/svg10.dtd">
<svg version="1.0" xmlns="http://www.w3.org/2000/svg"
 width="3376.000000pt" height="3376.000000pt" viewBox="0 0 3376.000000 3376.000000"
 preserveAspectRatio="xMidYMid meet">

<g transform="translate(0.000000,3376.000000) scale(0.100000,-0.100000)"
fill="#000000" stroke="none">
<path d="M0 16880 l0 -16880 16880 0 16880 0 0 16880 0 16880 -16880 0 -16880
0 0 -16880z m12731 12135 c58 -20 113 -65 143 -118 13 -23 580 -1452 1262
-3174 l1238 -3133 693 0 693 0 1 3068 c0 2321 3 3075 12 3099 24 65 73 119
133 149 l59 29 1180 3 c773 2 1227 -1 1315 -8 562 -44 1019 -243 1377 -599
313 -311 512 -704 598 -1181 27 -147 32 -493 10 -656 -103 -767 -561 -1393
-1226 -1677 -316 -135 -537 -177 -983 -186 l-310 -6 1135 -1026 1135 -1026
1544 8 c850 4 1686 8 1858 8 l312 1 -2 2828 -3 2827 -1015 5 -1015 5 -47 23
c-27 13 -64 42 -83 65 -53 62 -68 125 -63 275 4 147 17 181 91 249 86 79 -127
73 2477 73 2636 0 2395 8 2487 -84 71 -71 86 -126 81 -290 -3 -112 -6 -125
-33 -175 -16 -29 -45 -66 -64 -82 -75 -61 -28 -59 -1126 -59 l-1002 0 -6
-1657 c-4 -912 -7 -2333 -7 -3157 l0 -1499 -2336 5 -2335 5 -55 29 c-38 20
-505 437 -1532 1365 -813 735 -1493 1352 -1511 1370 -63 63 -76 107 -76 254 0
116 3 136 24 183 14 31 43 69 69 92 81 72 61 70 853 70 581 0 729 3 826 15
354 47 625 175 854 404 204 203 334 452 396 756 27 136 25 473 -5 608 -130
591 -535 997 -1112 1116 -175 36 -309 41 -1267 41 l-933 0 0 -3033 c0 -3355 5
-3092 -65 -3174 -20 -23 -61 -54 -93 -70 l-57 -28 -1088 -3 -1088 -3 -44 21
c-58 28 -149 129 -201 221 -23 41 -536 1322 -1140 2847 -604 1524 -1101 2772
-1105 2772 -3 0 -515 -1287 -1137 -2861 -622 -1573 -1142 -2873 -1154 -2888
-30 -36 -84 -75 -128 -91 -24 -8 -130 -14 -339 -17 -295 -5 -304 -5 -297 13 3
11 622 1576 1374 3478 1282 3243 1370 3462 1410 3507 63 71 115 88 273 88 87
1 139 -4 170 -14z m-5841 -99 c468 -79 836 -258 1144 -556 374 -362 597 -823
672 -1390 23 -178 15 -545 -16 -719 -88 -498 -302 -924 -625 -1246 -329 -329
-720 -517 -1225 -591 -95 -14 -230 -17 -777 -21 -593 -4 -667 -3 -711 11 -65
22 -124 74 -156 138 -24 48 -26 61 -26 192 0 127 2 146 24 191 29 60 76 107
136 134 44 20 63 21 646 21 619 0 738 5 908 41 527 110 923 491 1081 1040 121
419 86 874 -96 1259 -200 420 -543 691 -1008 793 -94 20 -123 21 -1123 24
l-1028 4 0 -2826 0 -2825 1660 0 1660 0 0 -325 0 -325 -1902 2 -1903 3 -57 28
c-61 30 -95 64 -131 131 l-22 41 -3 3275 c-2 3663 -9 3340 70 3427 41 44 79
68 128 84 14 4 599 7 1300 5 1172 -2 1284 -3 1380 -20z m19140 -8671 c834
-116 1482 -538 1775 -1157 86 -182 155 -436 155 -570 -1 -104 -54 -193 -145
-241 -51 -26 -193 -56 -270 -57 -143 0 -251 104 -270 260 -26 215 -152 465
-317 628 -423 418 -1197 577 -1923 396 -499 -125 -867 -388 -1045 -749 -69
-139 -100 -265 -107 -436 -15 -344 70 -616 250 -805 189 -200 464 -311 964
-389 147 -23 252 -35 863 -101 633 -67 1008 -157 1326 -317 274 -138 505 -355
638 -600 95 -175 169 -407 200 -635 21 -146 21 -403 0 -541 -78 -536 -386
-995 -889 -1329 -242 -160 -593 -311 -889 -382 -79 -19 -136 -20 -2562 -20
l-2481 0 -44 23 c-26 13 -658 577 -1558 1391 -1741 1574 -1566 1395 -1566
1606 0 109 3 132 23 175 30 65 75 112 137 141 l50 24 660 0 c688 0 863 7 1030
41 522 106 907 445 1070 944 59 181 70 255 70 490 -1 178 -4 225 -23 312 -64
295 -191 534 -391 733 -249 248 -550 378 -951 410 -87 7 -458 10 -1050 8
l-915 -3 -5 -3055 -5 -3055 -22 -40 c-29 -54 -78 -99 -138 -127 l-50 -23
-3180 0 c-3039 0 -3182 1 -3232 18 -67 24 -140 88 -169 152 l-24 50 0 3068 0
3067 -1010 0 -1010 0 -2 -3072 -3 -3073 -22 -47 c-29 -63 -93 -123 -153 -143
-39 -13 -80 -16 -187 -13 -153 3 -184 13 -245 72 -18 18 -877 1253 -1908 2744
l-1875 2712 -5 -2657 -5 -2658 -23 -51 c-29 -63 -82 -116 -147 -146 l-50 -23
-1107 -3 -1108 -3 0 326 0 325 870 0 870 0 2 3083 3 3082 30 54 c34 62 98 114
163 132 29 8 79 10 153 6 130 -8 187 -29 246 -90 22 -23 888 -1268 1924 -2766
l1884 -2724 5 2689 5 2689 23 42 c28 54 78 104 128 129 38 19 94 19 3239 19
l3200 0 57 -28 c67 -33 121 -91 142 -155 22 -62 22 -262 0 -324 -20 -61 -73
-121 -132 -150 l-47 -23 -1605 -5 -1605 -5 0 -1225 0 -1225 1570 -5 1570 -5
40 -22 c62 -33 121 -103 139 -164 10 -33 16 -91 16 -154 0 -63 -6 -121 -16
-154 -18 -61 -77 -131 -139 -164 l-40 -22 -1570 -5 -1570 -5 0 -1230 0 -1230
515 3 c283 1 1508 5 2723 8 l2207 6 0 3032 c0 3362 -6 3081 66 3164 19 22 57
52 86 66 l52 26 1241 0 c1345 0 1365 -1 1614 -56 305 -67 600 -202 836 -383
94 -71 261 -237 345 -342 230 -288 383 -645 447 -1044 24 -153 24 -507 0 -660
-75 -472 -264 -863 -572 -1184 -268 -279 -592 -467 -975 -565 -226 -57 -323
-68 -660 -75 l-304 -6 1124 -1017 1125 -1018 2120 0 c2297 0 2195 -2 2450 55
475 106 894 358 1095 659 169 254 231 536 186 846 -76 517 -380 754 -1131 880
-160 27 -296 44 -915 111 -742 80 -1177 204 -1518 432 -335 224 -550 558 -636
987 -105 527 -31 1006 218 1408 278 449 783 795 1389 952 163 42 342 74 502
89 143 14 547 5 685 -14z m-10305 -8559 c434 -58 798 -168 1159 -350 596 -300
1112 -777 1461 -1351 798 -1312 674 -2973 -310 -4162 -108 -130 -336 -361
-460 -464 -533 -446 -1132 -707 -1850 -805 -184 -25 -665 -26 -850 0 -644 87
-1206 314 -1700 686 -459 346 -850 825 -1094 1342 -587 1239 -419 2702 432
3768 379 475 834 829 1360 1060 330 145 709 246 1042 279 61 6 124 13 140 15
69 10 566 -4 670 -18z m-7996 -110 c747 -99 1395 -411 1924 -926 339 -330 578
-665 763 -1072 69 -151 80 -224 45 -303 -34 -76 -66 -111 -132 -144 -60 -30
-67 -31 -194 -31 -231 0 -265 23 -383 262 -268 542 -686 973 -1202 1242 -260
135 -526 221 -837 272 -134 21 -517 30 -669 15 -519 -53 -1009 -255 -1424
-587 -116 -93 -308 -287 -410 -414 -415 -518 -630 -1126 -630 -1780 0 -767
288 -1460 835 -2005 539 -537 1241 -817 1985 -792 394 13 732 98 1085 271 290
143 520 311 755 552 223 229 383 453 514 719 115 232 148 254 377 255 136 0
148 -2 197 -26 133 -66 184 -209 128 -358 -68 -179 -243 -491 -387 -689 -586
-804 -1434 -1300 -2409 -1408 -147 -16 -542 -17 -685 -1 -699 79 -1304 335
-1825 773 -144 121 -368 350 -483 494 -415 519 -666 1118 -753 1800 -26 196
-26 634 0 830 103 808 446 1513 1010 2079 550 552 1274 901 2021 975 61 6 126
13 145 15 78 9 532 -4 639 -18z m11728 -6108 c124 -41 233 -147 279 -272 14
-39 19 -77 19 -161 0 -102 -2 -114 -31 -175 -78 -164 -232 -261 -414 -263
-128 -1 -229 43 -322 141 -226 237 -127 626 187 734 73 25 197 24 282 -4z"/>
<path d="M15030 11004 c-515 -63 -912 -207 -1310 -475 -172 -117 -270 -198
-431 -358 -168 -169 -245 -262 -374 -456 -754 -1129 -616 -2624 334 -3609 467
-484 1068 -784 1727 -861 147 -17 462 -20 604 -5 660 69 1250 350 1721 820
174 173 252 267 374 450 268 402 427 847 474 1324 14 138 14 432 1 567 -69
689 -367 1311 -861 1795 -441 431 -960 691 -1579 789 -101 17 -589 30 -680 19z"/>
</g>
</svg>
